<svg width="112" height="112" viewBox="0 0 112 112" fill="none" xmlns="http://www.w3.org/2000/svg">
<path d="M63.0729 11.2697C85.2888 11.5086 104.399 28.2302 107.027 50.8044C109.893 75.409 92.3357 97.6249 67.6116 100.372C65.9395 100.611 64.1479 100.73 62.4757 100.73H61.9979C46.4707 100.491 32.6157 91.414 25.3298 77.5589L4.66669 89.503C4.66669 68.1232 13.8636 33.0078 39.4238 17.7194C39.5432 17.7194 39.6626 17.6 39.7821 17.6C39.9015 17.4806 40.021 17.4806 40.1404 17.3611C45.2763 14.3751 51.1289 12.3446 57.4592 11.628C59.1314 11.3891 60.923 11.2697 62.5951 11.2697H63.0729Z" fill="#0064FF"/>
</svg>
