<svg width="104" height="102" viewBox="0 0 104 102" fill="none" xmlns="http://www.w3.org/2000/svg">
<g clip-path="url(#clip0_302_4)">
<path d="M102.588 50.9882C102.593 61.0369 99.6169 70.8613 94.037 79.2184C88.457 87.5756 80.5238 94.0901 71.2409 97.9377C61.9579 101.785 51.7423 102.793 41.8864 100.834C32.0305 98.8746 22.9771 94.0362 15.8716 86.9307C8.76602 79.8251 3.92758 70.7717 1.96829 60.9158C0.00900375 51.0599 1.01693 40.8444 4.86456 31.5614C8.71218 22.2784 15.2266 14.3452 23.5837 8.76526C31.9409 3.18534 41.7653 0.209478 51.814 0.214086C65.2783 0.220261 78.1893 5.57164 87.71 15.0923C97.2306 24.6129 102.582 37.5239 102.588 50.9882V50.9882Z" fill="white"/>
<path d="M51.8136 99.3622C61.3811 99.3622 70.7337 96.5251 78.6887 91.2097C86.6438 85.8943 92.8441 78.3393 96.5054 69.5001C100.167 60.6609 101.125 50.9345 99.2581 41.5508C97.3916 32.1672 92.7844 23.5478 86.0192 16.7825C79.2539 10.0173 70.6345 5.41013 61.2509 3.5436C51.8672 1.67708 42.1408 2.63505 33.3016 6.29637C24.4624 9.95769 16.9075 16.1579 11.5921 24.113C6.27667 32.068 3.43951 41.4207 3.43951 50.9881C3.43951 63.8177 8.53608 76.1218 17.608 85.1937C26.6799 94.2656 38.984 99.3622 51.8136 99.3622V99.3622Z" fill="#0083CA"/>
<mask id="mask0_302_4" style="mask-type:alpha" maskUnits="userSpaceOnUse" x="3" y="2" width="98" height="98">
<path d="M51.8136 99.3623C61.3811 99.3623 70.7337 96.5252 78.6888 91.2098C86.6439 85.8944 92.8441 78.3394 96.5054 69.5002C100.167 60.661 101.125 50.9346 99.2582 41.5509C97.3917 32.1673 92.7845 23.5479 86.0192 16.7826C79.254 10.0174 70.6346 5.41023 61.2509 3.54371C51.8673 1.67719 42.1409 2.63516 33.3017 6.29648C24.4625 9.95779 16.9075 16.158 11.5921 24.1131C6.27673 32.0682 3.43958 41.4208 3.43958 50.9882C3.43958 63.8178 8.53614 76.122 17.608 85.1938C26.6799 94.2657 38.984 99.3623 51.8136 99.3623V99.3623Z" fill="#0083CA"/>
</mask>
<g mask="url(#mask0_302_4)">
<path d="M51.9767 74.3596C73.2277 74.3596 91.4495 80.2782 99.2556 88.6668C101.955 82.495 103.344 75.8299 103.333 69.0935C103.333 55.479 97.925 42.4222 88.2981 32.7953C78.6713 23.1685 65.6145 17.7601 52 17.7601C38.3856 17.7601 25.3287 23.1685 15.7018 32.7953C6.07497 42.4222 0.666616 55.479 0.666616 69.0935C0.656926 75.8274 2.03726 82.4908 4.72113 88.6668C12.5039 80.2782 30.7024 74.3596 51.9767 74.3596Z" fill="#0083CA"/>
<path d="M51.9767 74.4083C73.1811 74.4083 91.3563 80.2803 99.139 88.6223C101.82 82.4946 103.201 75.8773 103.193 69.1888C103.193 41.6696 80.2414 19.3002 51.93 19.3002C23.6186 19.3002 0.666611 41.6696 0.666611 69.1888C0.657366 75.8775 2.03809 82.4952 4.72113 88.6223C12.5971 80.2803 30.7024 74.4083 51.9767 74.4083Z" fill="#0085CB"/>
<path d="M51.9767 74.4528C73.1112 74.4528 91.2398 80.3015 98.9992 88.5502C101.677 82.4789 103.058 75.9155 103.054 69.2799C103.054 41.9705 80.1483 19.7175 51.9767 19.7175C23.8051 19.7175 0.899649 41.9938 0.899649 69.2799C0.889841 75.9161 2.27107 82.4806 4.95417 88.5502C12.6903 80.3015 30.8189 74.4528 51.9767 74.4528Z" fill="#0086CC"/>
<path d="M51.9533 74.5227C73.0412 74.5227 91.1466 80.3015 98.8827 88.5037C101.548 82.5186 102.929 76.0413 102.937 69.4896C102.937 42.4132 80.1016 20.2534 51.9767 20.2534C23.8517 20.2534 1.06275 42.4132 1.06275 69.4896C1.04763 76.0713 2.42129 82.5822 5.09394 88.5969C12.7835 80.3015 30.8654 74.5227 51.9533 74.5227Z" fill="#0088CC"/>
<path d="M51.9534 74.5693C72.9248 74.5693 91.0301 80.3015 98.7429 88.4338C101.411 82.475 102.784 76.0183 102.774 69.4896C102.774 42.6229 80.0084 20.5563 51.9534 20.5563C23.8983 20.5563 1.15599 42.5996 1.15599 69.4896C1.1467 76.0157 2.51231 82.4706 5.16386 88.4338C12.8767 80.3015 30.9121 74.5693 51.9534 74.5693Z" fill="#0089CD"/>
<path d="M51.9534 74.6159C72.9248 74.6159 90.9136 80.3015 98.5566 88.3639C101.205 82.4572 102.571 76.0561 102.564 69.5828C102.564 42.9258 79.8454 20.9991 51.8835 20.9991C23.9217 20.9991 1.22597 42.9491 1.22597 69.5828C1.2204 76.0535 2.57805 82.4528 5.21052 88.3639C12.9699 80.3015 30.982 74.6159 51.9534 74.6159Z" fill="#008BCE"/>
<path d="M51.9534 74.6858C72.9248 74.6858 90.8204 80.3015 98.5565 88.3173C101.202 82.4589 102.568 76.104 102.564 69.676C102.564 43.252 79.9152 21.4418 52.0233 21.4418C24.1313 21.4418 1.48218 43.252 1.48218 69.676C1.47948 76.1014 2.83751 82.4545 5.4668 88.3173C13.0631 80.3015 31.0286 74.6858 51.9534 74.6858Z" fill="#008DCF"/>
<path d="M51.9301 74.7324C72.9015 74.7324 90.7039 80.3248 98.3701 88.2474C100.997 82.4414 102.356 76.1418 102.355 69.7692C102.355 43.5783 79.7754 21.8612 51.9301 21.8612C24.0847 21.8612 1.52887 43.5783 1.52887 69.7692C1.52584 76.1421 2.88433 82.4421 5.51342 88.2474C13.1563 80.3248 31.0752 74.7324 51.9301 74.7324Z" fill="#008ED0"/>
<path d="M51.9301 74.7791C72.7384 74.7791 90.6107 80.3248 98.2303 88.1774C100.87 82.4333 102.23 76.184 102.215 69.8624C102.215 43.8812 79.6822 22.3039 51.9301 22.3039C24.1779 22.3039 1.66867 43.9045 1.66867 69.8624C1.65558 76.1814 3.00673 82.4287 5.6299 88.1774C13.2495 80.3248 31.1218 74.7791 51.9301 74.7791Z" fill="#0090D0"/>
<path d="M51.9301 74.849C72.6685 74.849 90.4942 80.3248 98.1138 88.1308C100.732 82.4298 102.083 76.2291 102.075 69.9556C102.075 44.3239 79.6123 22.7234 51.9301 22.7234C24.2478 22.7234 1.78516 44.2074 1.78516 69.9556C1.78559 76.2281 3.13665 82.427 5.74645 88.1308C13.3661 80.3248 31.1684 74.849 51.9301 74.849Z" fill="#0092D1"/>
<path d="M51.9301 74.8956C72.6218 74.8956 90.3777 80.3248 97.9973 88.0609C100.602 82.413 101.953 76.2683 101.958 70.0488C101.958 44.4171 79.5424 23.1428 51.9301 23.1428C24.3177 23.1428 1.90167 44.5336 1.90167 70.0488C1.90209 76.2689 3.25363 82.4146 5.86289 88.0609C13.4592 80.3248 31.215 74.8956 51.9301 74.8956Z" fill="#0093D2"/>
<path d="M51.9068 74.9422C72.552 74.9422 90.2845 80.3481 97.8575 87.991C100.464 82.4014 101.816 76.3094 101.819 70.142C101.819 44.8366 79.4493 23.5389 51.9068 23.5389C24.3644 23.5389 2.04153 44.8132 2.04153 70.142C2.03442 76.308 3.37861 82.4005 5.9795 87.991C13.5525 80.3481 31.2617 74.9422 51.9068 74.9422Z" fill="#0095D3"/>
<path d="M51.9068 75.012C72.4821 75.012 90.1679 80.3481 97.7409 87.9444C100.337 82.4018 101.681 76.3557 101.679 70.2353C101.679 45.1628 79.3794 24.0049 51.9068 24.0049C24.4343 24.0049 2.15799 45.1628 2.15799 70.2353C2.15083 76.3563 3.49551 82.4033 6.09596 87.9444C13.6457 80.3481 31.3082 75.012 51.9068 75.012Z" fill="#0097D4"/>
<path d="M51.9068 75.0587C72.4355 75.0587 90.0747 80.3481 97.6011 87.8745C100.194 82.3968 101.539 76.4121 101.539 70.3517C101.539 45.489 79.3095 24.4477 51.9068 24.4477C24.5042 24.4477 2.27448 45.4191 2.27448 70.3517C2.27247 76.4123 3.61756 82.3976 6.21245 87.8745C13.7388 80.3481 31.3549 75.0587 51.9068 75.0587Z" fill="#0098D5"/>
<path d="M51.8835 75.1053C72.3655 75.1053 89.9582 80.3481 97.4846 87.8046C100.058 82.3791 101.395 76.4499 101.399 70.445C101.399 45.7919 79.2162 24.8671 51.8835 24.8671C24.5508 24.8671 2.41425 45.8385 2.41425 70.445C2.41279 76.4505 3.75017 82.3809 6.32896 87.8046C13.8321 80.3481 31.4014 75.1053 51.8835 75.1053Z" fill="#009AD5"/>
<path d="M51.8835 75.1519C72.2957 75.1519 89.8418 80.3714 97.3449 87.758C99.9153 82.381 101.253 76.498 101.259 70.5382C101.259 46.1181 79.1463 25.3098 51.8835 25.3098C24.6207 25.3098 2.53082 46.1181 2.53082 70.5382C2.53212 76.4986 3.8698 82.3828 6.44547 87.758C13.9253 80.3714 31.448 75.1519 51.8835 75.1519Z" fill="#009CD6"/>
<path d="M51.8835 75.2218C72.249 75.2218 89.7485 80.3714 97.2283 87.6881C99.7804 82.3636 101.11 76.5359 101.12 70.6314C101.12 46.4444 79.0531 25.7293 51.8835 25.7293C24.7138 25.7293 2.74048 46.4444 2.74048 70.6314C2.74473 76.5392 4.08288 82.3697 6.65512 87.6881C14.0184 80.3714 31.4946 75.2218 51.8835 75.2218Z" fill="#009ED7"/>
<path d="M51.8835 75.2684C72.1791 75.2684 89.632 80.3714 97.0885 87.6182C99.6502 82.355 100.981 76.578 100.98 70.7246C100.98 46.7473 78.9832 26.1487 51.8835 26.1487C24.7838 26.1487 2.7405 46.7473 2.7405 70.7246C2.73377 76.5787 4.0648 82.3569 6.6319 87.6182C14.1117 80.3714 31.5412 75.2684 51.8835 75.2684Z" fill="#00A0D8"/>
<path d="M51.8601 75.315C72.1092 75.315 89.5388 80.3714 96.972 87.5716C99.515 82.3525 100.838 76.6235 100.84 70.8178C100.84 47.0735 78.9133 26.5448 51.9068 26.5448C24.9003 26.5448 2.97351 47.0269 2.97351 70.8178C2.97342 76.6237 4.29626 82.3533 6.84158 87.5716C14.2049 80.3714 31.5878 75.315 51.8601 75.315Z" fill="#00A1D9"/>
<path d="M51.8602 75.3849C72.0626 75.3849 89.4223 80.3947 96.8322 87.5017C99.3744 82.3404 100.698 76.6644 100.7 70.911C100.7 47.3997 78.8201 27.0109 51.767 27.0109C24.7139 27.0109 2.83374 47.3997 2.83374 70.911C2.84453 76.6634 4.16745 82.3376 6.70181 87.5017C14.3913 80.3947 31.6577 75.3849 51.8602 75.3849Z" fill="#00A3DA"/>
<path d="M51.8602 75.4315C71.9927 75.4315 89.3058 80.3947 96.7156 87.4318C99.2319 82.3608 100.555 76.7815 100.584 71.1207C100.584 47.8191 78.7501 27.5701 51.8602 27.5701C24.9702 27.5701 3.15991 47.8191 3.15991 71.1207C3.18056 76.7798 4.49568 82.3592 7.00465 87.4318C14.3912 80.3947 31.7043 75.4315 51.8602 75.4315Z" fill="#00A5DB"/>
<path d="M51.8602 75.4781C71.9228 75.4781 89.1427 80.3947 96.5759 87.3852C99.1176 82.3235 100.442 76.7381 100.444 71.0741C100.444 48.0055 78.6803 27.8497 51.8602 27.8497C25.0401 27.8497 3.27649 48.0055 3.27649 71.0741C3.27619 76.7357 4.59243 82.3197 7.12123 87.3852C14.3913 80.3947 31.7509 75.4781 51.8602 75.4781Z" fill="#00A7DC"/>
<path d="M51.8369 75.548C71.8762 75.548 89.1194 80.3947 96.4594 87.3153C98.9783 82.3211 100.295 76.8073 100.304 71.2139C100.304 48.3551 78.5871 28.3158 51.8369 28.3158C25.0867 28.3158 3.41626 48.3551 3.41626 71.2139C3.41735 76.8056 4.72597 82.3195 7.23768 87.3153C14.5777 80.3947 31.7976 75.548 51.8369 75.548Z" fill="#00A9DD"/>
<path d="M51.8369 75.5946C71.8064 75.5946 89.0029 80.418 96.3196 87.2454C98.8384 82.3095 100.156 76.8485 100.164 71.3071C100.164 48.658 78.5172 28.7352 51.8369 28.7352C25.1566 28.7352 3.53278 48.658 3.53278 71.3071C3.54205 76.8457 4.85099 82.3048 7.35427 87.2454C14.671 80.418 31.8442 75.5946 51.8369 75.5946Z" fill="#00ABDE"/>
<path d="M51.8369 75.6412C71.7598 75.6412 88.8864 80.418 96.1099 87.292C98.6075 82.3993 99.9167 76.9868 99.9313 71.4935C99.9313 49.0774 78.3541 29.2711 51.7437 29.2711C25.1333 29.2711 3.55609 49.0774 3.55609 71.4935C3.59254 76.9572 4.90934 82.3362 7.40083 87.1988C14.7874 80.418 31.8908 75.6412 51.8369 75.6412Z" fill="#00ADDE"/>
<path d="M51.8136 75.6878C71.6898 75.6878 88.7699 80.3481 96.0866 87.1289C98.5935 82.2981 99.9041 76.9361 99.908 71.4935C99.908 49.3104 78.3774 29.5507 51.8369 29.5507C25.2964 29.5507 3.81238 49.2638 3.81238 71.4935C3.81723 76.9332 5.11931 82.2932 7.61054 87.1289C14.8806 80.418 31.9374 75.6878 51.8136 75.6878Z" fill="#00AFDF"/>
<path d="M51.8136 75.7577C71.6199 75.7577 88.6766 80.418 95.9467 87.059C98.4348 82.2806 99.7375 76.974 99.7449 71.5867C99.7449 49.6134 78.2841 30.0168 51.8136 30.0168C25.343 30.0168 3.90558 49.6134 3.90558 71.5867C3.91023 76.9744 5.21306 82.2816 7.70374 87.059C14.9738 80.418 31.984 75.7577 51.8136 75.7577Z" fill="#00B1E0"/>
<path d="M51.8136 75.8043C71.5733 75.8043 88.5602 80.4646 95.807 87.0124C98.294 82.2838 99.5973 77.0227 99.6051 71.6799C99.6051 49.9396 78.2143 30.4595 51.8136 30.4595C25.4129 30.4595 4.02209 49.9396 4.02209 71.6799C4.02714 77.023 5.3306 82.2848 7.82026 87.0124C15.067 80.4413 32.0306 75.8043 51.8136 75.8043Z" fill="#00B3E1"/>
<path d="M51.8136 75.8509C71.5034 75.8509 88.467 80.5112 95.6904 86.9425C98.1595 82.2667 99.455 77.0608 99.4653 71.7731C99.4653 50.2425 78.121 30.8789 51.8136 30.8789C25.5061 30.8789 4.16187 50.2658 4.16187 71.7731C4.17218 77.0608 5.46771 82.2667 7.93678 86.9425C15.1603 80.4413 32.0772 75.8509 51.8136 75.8509Z" fill="#0DB5E2"/>
<path d="M51.7903 75.9208C71.4335 75.9208 88.3504 80.4413 95.5506 86.8726C98.0178 82.2547 99.3141 77.1019 99.3255 71.8664C99.3255 50.5687 78.0511 31.3216 51.7903 31.3216C25.5294 31.3216 4.27844 50.5687 4.27844 71.8664C4.2899 77.1019 5.58609 82.2547 8.05328 86.8726C15.2535 80.4413 32.1238 75.9208 51.7903 75.9208Z" fill="#19B7E3"/>
<path d="M51.7903 75.9674C71.3869 75.9674 88.2339 80.4413 95.4341 86.826C97.8951 82.2645 99.1917 77.1659 99.2089 71.9829C99.2089 51.0115 77.9812 31.7411 51.7903 31.7411C25.5993 31.7411 4.3949 50.895 4.3949 71.9829C4.4092 77.1662 5.70602 82.2655 8.16974 86.826C15.3466 80.4413 32.1703 75.9674 51.7903 75.9674Z" fill="#21B9E4"/>
<path d="M51.7903 76.014C71.317 76.014 88.1408 80.4646 95.3176 86.7561C97.759 82.2467 99.0477 77.2038 99.0691 72.0761C99.0691 51.1047 77.888 32.1838 51.7903 32.1838C25.6925 32.1838 4.53473 51.1979 4.53473 72.0761C4.54518 77.2023 5.82614 82.2461 8.26299 86.7561C15.4399 80.4646 32.217 76.014 51.7903 76.014Z" fill="#28BBE5"/>
<path d="M51.7903 76.1305C71.2937 76.1305 88.0941 80.5578 95.2477 86.8026C97.6914 82.3279 98.9808 77.3144 98.9992 72.2159C98.9992 51.5008 77.8647 32.6032 51.7903 32.6032C25.7158 32.6032 4.60461 51.5474 4.60461 72.2159C4.61195 77.3129 5.89357 82.3272 8.33288 86.8026C15.4865 80.5578 32.2636 76.1305 51.7903 76.1305Z" fill="#37BDE6"/>
<path d="M51.7903 76.2704C71.2704 76.2704 88.0475 80.6511 95.1778 86.8726C97.6251 82.4245 98.9151 77.4326 98.9293 72.3557C98.9293 51.7804 77.8181 32.9528 51.7903 32.9528C25.7624 32.9528 4.65125 51.7804 4.65125 72.3557C4.67604 77.4283 5.95694 82.4158 8.37951 86.8726C15.5331 80.6511 32.2868 76.2704 51.7903 76.2704Z" fill="#43BFE6"/>
<path d="M51.7902 76.4801C71.247 76.4801 87.9776 80.8375 95.1311 87.0124C97.5607 82.6004 98.8427 77.6487 98.8594 72.612C98.8594 52.1532 77.888 33.4421 51.7902 33.4421C25.6925 33.4421 4.72113 52.0833 4.72113 72.612C4.73479 77.6491 6.017 82.6015 8.44939 87.0124C15.5797 80.7443 32.3101 76.4801 51.7902 76.4801Z" fill="#4DC0E7"/>
<path d="M51.7903 76.4801C71.2238 76.4801 87.931 80.8142 95.0613 86.9425C97.5008 82.5671 98.7915 77.6448 98.8129 72.6353C98.8129 52.3164 77.8414 33.7217 51.7903 33.7217C25.7391 33.7217 4.79108 52.363 4.79108 72.6353C4.80823 77.6394 6.08219 82.559 8.49602 86.9425C15.6263 80.8375 32.3335 76.4801 51.7903 76.4801Z" fill="#56C2E8"/>
<path d="M51.7903 76.6432C71.2005 76.6432 87.8844 80.9307 95.0147 87.0124C97.4327 82.6716 98.7151 77.7904 98.743 72.8217C98.743 52.6426 77.7715 34.1411 51.7903 34.1411C25.809 34.1411 4.86096 52.6426 4.86096 72.8217C4.86739 77.7902 6.14267 82.6748 8.5659 87.0124C15.6729 80.9307 32.3568 76.6432 51.7903 76.6432Z" fill="#5EC4E8"/>
<path d="M51.7903 76.7597C71.1539 76.7597 87.8378 81.0239 94.9448 87.0823C97.3723 82.7707 98.6558 77.9095 98.6731 72.9615C98.6731 52.9222 77.7016 34.5373 51.7903 34.5373C25.8789 34.5373 4.90753 52.9222 4.90753 72.9615C4.92787 77.9061 6.20263 82.7647 8.61247 87.0823C15.7427 81.1404 32.3801 76.7597 51.7903 76.7597Z" fill="#65C6E9"/>
<path d="M51.7903 76.8762C71.1306 76.8762 87.7912 81.1171 94.8982 87.1289C97.2994 82.8584 98.5745 78.0471 98.6032 73.148C98.6032 53.2484 77.6317 34.98 51.7903 34.98C25.9488 34.98 5.07068 53.1785 5.07068 73.1013C5.09632 78.0009 6.3715 82.813 8.77562 87.0823C15.7894 81.1404 32.4267 76.8762 51.7903 76.8762Z" fill="#6DC7EA"/>
<path d="M51.7903 76.9927C71.1073 76.9927 87.7446 81.2103 94.8283 87.1755C97.2479 82.9125 98.5242 78.0963 98.5332 73.1945C98.5332 53.4115 77.5618 35.2596 51.7903 35.2596C26.0188 35.2596 5.07068 53.4814 5.07068 73.2644C5.07148 78.1643 6.33975 82.9806 8.75229 87.2454C15.836 81.1404 32.45 76.9927 51.7903 76.9927Z" fill="#74C9EA"/>
<path d="M51.7903 77.1325C71.084 77.1325 87.698 81.3035 94.7817 87.2454C97.1763 83.0229 98.4516 78.2583 98.4866 73.4042C98.4866 53.761 77.5152 35.7256 51.8835 35.7256C26.2518 35.7256 5.2804 53.7843 5.2804 73.4042C5.29368 78.2582 6.56199 83.0263 8.96208 87.2454C15.8826 81.3035 32.4733 77.1325 51.7903 77.1325Z" fill="#7ACBEB"/>
<path d="M51.7902 77.249C71.0606 77.249 87.6514 81.3967 94.7117 87.292C97.1154 83.1155 98.3921 78.386 98.4167 73.5674C98.4167 54.064 77.4453 36.1217 51.8136 36.1217C26.1818 36.1217 5.21045 54.064 5.21045 73.5674C5.23535 78.3829 6.50356 83.1105 8.89213 87.292C15.9292 81.3967 32.4965 77.249 51.7902 77.249Z" fill="#81CDEC"/>
<path d="M51.7903 77.3655C71.0373 77.3655 87.6048 81.4899 94.6652 87.3386C97.0511 83.1898 98.3196 78.493 98.3468 73.7072C98.3468 54.3436 77.4919 36.4247 51.7437 36.4247C25.9955 36.4247 5.14056 54.2737 5.14056 73.7072C5.15379 78.4949 6.42326 83.1953 8.82218 87.3386C15.9758 81.4899 32.5199 77.3655 51.7903 77.3655Z" fill="#87CFEC"/>
<path d="M51.7903 77.5053C71.0141 77.5053 87.5349 81.5831 94.5953 87.3852C96.9825 83.2709 98.2518 78.6036 98.2769 73.847C98.2769 54.6232 77.4453 36.8907 51.7903 36.8907C26.1353 36.8907 5.30371 54.6232 5.30371 73.847C5.3207 78.6016 6.58196 83.2691 8.96207 87.3852C16.0224 81.5831 32.5432 77.5053 51.7903 77.5053Z" fill="#8ED1ED"/>
<path d="M51.7903 77.6219C70.9907 77.6219 87.4883 81.6763 94.5486 87.4551C96.9293 83.372 98.1987 78.7364 98.2303 74.0101C98.2303 54.9028 77.422 37.2868 51.7903 37.2868C26.1585 37.2868 5.3736 54.9261 5.3736 74.0101C5.39383 78.7349 6.65543 83.3714 9.03196 87.4551C16.069 81.6763 32.5898 77.6219 51.7903 77.6219Z" fill="#94D3EE"/>
<path d="M51.7903 77.7383C70.9675 77.7383 87.4417 81.7695 94.4787 87.5017C96.9028 83.4651 98.2133 78.858 98.2769 74.1499C98.2769 55.1824 77.4919 37.683 51.9068 37.683C26.3217 37.683 5.53674 55.2057 5.53674 74.1499C5.55686 78.8453 6.81897 83.4518 9.19503 87.5017C16.1156 81.7695 32.6131 77.7383 51.7903 77.7383Z" fill="#9AD5EF"/>
<path d="M51.7902 77.8549C70.9441 77.8549 87.395 81.8627 94.4088 87.5483C96.7876 83.5409 98.0583 78.9732 98.0905 74.313C98.0905 55.4854 77.352 38.0791 51.7902 38.0791C26.2284 38.0791 5.49005 55.4854 5.49005 74.313C5.5107 78.9716 6.77357 83.5404 9.14841 87.5483C16.1622 81.8627 32.6364 77.8549 51.7902 77.8549Z" fill="#A0D7F0"/>
<path d="M51.7903 77.9946C70.9209 77.9946 87.3485 81.9559 94.3623 87.5949C96.7253 83.616 97.9879 79.0804 98.0206 74.4528C98.0206 55.8116 77.3055 38.4752 51.7903 38.4752C26.2751 38.4752 5.56 55.765 5.56 74.4528C5.57322 79.08 6.8286 83.6187 9.19503 87.5949C16.2088 81.9559 32.6597 77.9946 51.7903 77.9946Z" fill="#A6D9F0"/>
<path d="M51.7903 78.1112C70.8975 78.1112 87.3019 82.0491 94.2923 87.6648C96.6726 83.7177 97.9444 79.2018 97.974 74.5926C97.974 55.9514 77.2822 38.8714 51.7903 38.8714C26.2984 38.8714 5.62988 56.0679 5.62988 74.5926C5.64533 79.1975 6.901 83.7131 9.26492 87.6648C16.2554 82.0491 32.683 78.1112 51.7903 78.1112Z" fill="#ACDCF1"/>
<path d="M51.7902 78.2277C70.8509 78.2277 87.2552 82.1424 94.2457 87.7114C96.604 83.7987 97.8675 79.3241 97.904 74.7557C97.904 56.3242 77.2355 39.2675 51.7902 39.2675C26.3449 39.2675 5.69977 56.3475 5.69977 74.7557C5.7199 79.3201 6.96744 83.795 9.31155 87.7114C16.3253 82.1424 32.7063 78.2277 51.7902 78.2277Z" fill="#B2DEF2"/>
<path d="M51.7903 78.3442C70.8277 78.3442 87.2087 82.2355 94.1758 87.6648C96.534 83.7862 97.7982 79.3415 97.8342 74.8023C97.8342 56.5339 77.189 39.5704 51.7903 39.5704C26.3916 39.5704 5.74646 56.5339 5.74646 74.8023C5.76015 79.3414 7.01735 83.79 9.3815 87.6648C16.372 82.2355 32.7529 78.3442 51.7903 78.3442Z" fill="#B8E0F3"/>
<path d="M51.7903 78.484C70.8043 78.484 87.1621 82.3288 94.1292 87.8046C96.4727 83.955 97.729 79.5421 97.7643 75.0354C97.7643 56.8835 77.1657 40.083 51.7903 40.083C26.4149 40.083 5.81635 56.9301 5.81635 75.0354C5.83635 79.5443 7.09371 83.9612 9.45138 87.8046C16.4185 82.3288 32.7762 78.484 51.7903 78.484Z" fill="#BDE2F4"/>
<path d="M51.7903 78.6005C70.781 78.6005 87.1154 82.422 94.0593 87.9211C96.405 84.1067 97.6621 79.723 97.6943 75.2451C97.6943 57.233 77.119 40.4792 51.7903 40.4792C26.4615 40.4792 5.88623 57.2563 5.88623 75.2451C5.90673 79.7214 7.15604 84.1062 9.49794 87.9211C16.4651 82.422 32.7995 78.6005 51.7903 78.6005Z" fill="#C3E5F5"/>
<path d="M51.7902 78.8102C70.7577 78.8102 87.0456 82.6084 94.0127 88.0143C96.3476 84.2293 97.6044 79.8785 97.6478 75.4315C97.6478 57.5592 77.0957 40.9219 51.7902 40.9219C26.4847 40.9219 5.95612 57.5825 5.95612 75.4315C5.96867 79.8765 7.21064 84.2314 9.54458 88.0143C16.5117 82.5152 32.8228 78.8102 51.7902 78.8102Z" fill="#C9E7F5"/>
<path d="M51.7902 78.8102C70.7344 78.8102 86.9989 82.5618 93.9428 87.9211C96.2759 84.1782 97.5335 79.8651 97.5778 75.4548C97.5778 57.699 77.0491 41.1782 51.7902 41.1782C26.5313 41.1782 6.00269 57.8388 6.00269 75.5014C6.02425 79.9118 7.27503 84.2288 9.61447 87.9677C16.5583 82.6084 32.8461 78.8102 51.7902 78.8102Z" fill="#CEE9F6"/>
<path d="M51.7903 78.9733C70.7111 78.9733 86.9523 82.7016 93.8962 88.0376C96.2187 84.317 97.4686 80.0271 97.508 75.6412C97.508 58.0485 77.0259 41.6209 51.7903 41.6209C26.5547 41.6209 6.07263 58.0485 6.07263 75.6412C6.09258 80.0657 7.36063 84.3948 9.73099 88.1308C16.7215 82.7016 32.8694 78.9733 51.7903 78.9733Z" fill="#D4ECF7"/>
<path d="M51.7903 79.0898C70.6878 79.0898 86.9057 82.7948 93.7331 88.0842C96.0597 84.4083 97.3109 80.1545 97.3448 75.8043C97.3448 58.3282 76.8861 42.0171 51.6971 42.0171C26.5081 42.0171 6.04938 58.3282 6.04938 75.8043C6.08546 80.1788 7.36209 84.4532 9.73099 88.1308C16.7215 82.7948 33.0325 79.0898 51.7903 79.0898Z" fill="#DAEEF8"/>
<path d="M51.7902 79.2063C70.6645 79.2063 86.8591 82.888 93.733 88.1308C96.0603 84.4884 97.3197 80.2663 97.3681 75.9441C97.3681 58.6078 76.9094 42.4132 51.767 42.4132C26.6246 42.4132 6.18915 58.7243 6.18915 75.9441C6.20591 80.2578 7.43304 84.4802 9.73096 88.1308C16.7214 82.888 33.0325 79.2063 51.7902 79.2063Z" fill="#DFF1F9"/>
<path d="M51.7903 79.3461C70.6412 79.3461 86.7426 82.9812 93.7331 88.1775C96.055 84.5683 97.3073 80.3753 97.3449 76.0839C97.3449 58.8874 76.9327 42.8093 51.8136 42.8093C26.6945 42.8093 6.28235 58.9107 6.28235 76.0839C6.30009 80.3749 7.54526 84.5713 9.87081 88.1775C16.7215 82.9812 33.0325 79.3461 51.7903 79.3461Z" fill="#E5F3FA"/>
<path d="M51.7903 79.4627C70.6179 79.4627 86.7426 83.0744 93.7331 88.2474C96.0475 84.6693 97.2999 80.5082 97.3448 76.247C97.3448 59.1903 76.956 43.2054 51.8835 43.2054C26.811 43.2054 6.42212 59.1903 6.42212 76.247C6.4506 80.504 7.68689 84.6654 9.98725 88.2474C16.7214 83.0744 33.0325 79.4627 51.7903 79.4627Z" fill="#EBF6FB"/>
<path d="M51.7903 79.5792C70.5946 79.5792 86.7426 83.1676 93.5932 88.294C95.892 84.7444 97.1363 80.6155 97.1817 76.3869C97.1817 59.4699 76.8394 43.6016 51.7903 43.6016C26.7411 43.6016 6.39886 59.4699 6.39886 76.4801C6.42441 80.7083 7.66166 84.8406 9.964 88.3872C16.838 83.1676 33.0325 79.5792 51.7903 79.5792Z" fill="#F1F8FD"/>
<path d="M51.7902 79.6957C70.5713 79.6957 86.7426 83.2608 93.5233 88.3405C95.841 84.8171 97.0875 80.6973 97.1118 76.4801C97.1118 59.6796 76.7928 43.8579 51.7902 43.8579C26.7877 43.8579 6.46875 59.633 6.46875 76.4801C6.48999 80.6692 7.71979 84.7632 10.0106 88.2706C16.9078 83.2608 33.0325 79.6957 51.7902 79.6957Z" fill="#F7FBFE"/>
<path d="M51.7902 79.8355C70.4315 79.8355 86.6028 83.354 93.4767 88.4104C95.7572 84.9474 97.0021 80.9056 97.0652 76.7597C97.0652 60.0991 76.7695 44.4637 51.7902 44.4637C26.811 44.4637 6.51532 60.1224 6.51532 76.7597C6.55846 80.9053 7.7963 84.9506 10.0805 88.4104C16.9544 83.4705 33.0325 79.8355 51.7902 79.8355Z" fill="white"/>
<path d="M51.7903 63.1982C36.7089 63.0592 21.7213 65.5834 7.51733 70.6547C11.3212 79.1978 17.5198 86.4551 25.3629 91.5483C33.2059 96.6415 42.3571 99.3522 51.7088 99.3522C61.0605 99.3522 70.2116 96.6415 78.0547 91.5483C85.8977 86.4551 92.0963 79.1978 95.9002 70.6547C81.7495 65.5957 66.8176 63.0716 51.7903 63.1982V63.1982Z" fill="#0083CA"/>
</g>
</g>
<defs>
<clipPath id="clip0_302_4">
<rect width="102.667" height="101.571" fill="white" transform="translate(0.666687 0.214066)"/>
</clipPath>
</defs>
</svg>
